# xmcd
#
# Track frame offsets:
#	150
#	15222
#	26352
#	46635
#	59945
#	73145
#	83017
#	99755
#	115787
#	123422
#	139252
#	154337
#	165557
#	185959
#	199287
#	212527
#	222542
#	239287
#	255525
#	263225
#
# Disc length: 3720 seconds
#
# Revision: 1
# Processed by: cddbd v1.5.2PL0 Copyright (c) Steve Scherf et al.
# Submitted via: audiograbber 1.83.01
#
DISCID=1e0e8614
DTITLE=Jerry Story - Wings of a Dove
DYEAR=2009
DGENRE=Gospel
TTITLE0=Wings of a Dove (Vocal)
TTITLE1=Jesus is My Saviour (Vocal)
TTITLE2=Angels Among Us (Vocal)
TTITLE3=Just a Closer Walk With Thee (Vocal)
TTITLE4=Amazing Grace (Vocal)
TTITLE5=God Has Been Good To Me (Vocal)
TTITLE6=We're On A Journey (Vocal)
TTITLE7=Mountain Top (Vocal)
TTITLE8=Whe The Roll Is Called Up Yonder (Vocal)
TTITLE9=How Great Thou Art (Vocal)
TTITLE10=Wings of a Dove (Instrumental)
TTITLE11=Jesus is My Saviour (Instrumental) 
TTITLE12=Angels Among Us (Instrumental) 
TTITLE13=Just a Closer Walk With Thee (Instrumental) 
TTITLE14=Amazing Grace (Instrumental)
TTITLE15=God Has Been Good To Me (Instrumental)
TTITLE16=We're On A Journey (Instrumental)
TTITLE17=Mountain Top (Instrumental)
TTITLE18=Whe The Roll Is Called Up Yonder (Instrumental)
TTITLE19=How Great Thou Art (Instrumental)
EXTD=
EXTT0=
EXTT1=
EXTT2=
EXTT3=
EXTT4=
EXTT5=
EXTT6=
EXTT7=
EXTT8=
EXTT9=
EXTT10=
EXTT11=
EXTT12=
EXTT13=
EXTT14=
EXTT15=
EXTT16=
EXTT17=
EXTT18=
EXTT19=
PLAYORDER=
